<svg width="60" height="60" viewBox="0 0 103 103" fill="none" xmlns="http://www.w3.org/2000/svg">
<path d="M85.8335 8.58337H17.1668C12.446 8.58337 8.62641 12.4459 8.62641 17.1667L8.5835 94.4167L25.7502 77.25H85.8335C90.5543 77.25 94.4168 73.3875 94.4168 68.6667V17.1667C94.4168 12.4459 90.5543 8.58337 85.8335 8.58337ZM30.0418 38.625H72.9585C75.3189 38.625 77.2502 40.5563 77.2502 42.9167C77.2502 45.2771 75.3189 47.2084 72.9585 47.2084H30.0418C27.6814 47.2084 25.7502 45.2771 25.7502 42.9167C25.7502 40.5563 27.6814 38.625 30.0418 38.625ZM55.7918 60.0834H30.0418C27.6814 60.0834 25.7502 58.1521 25.7502 55.7917C25.7502 53.4313 27.6814 51.5 30.0418 51.5H55.7918C58.1522 51.5 60.0835 53.4313 60.0835 55.7917C60.0835 58.1521 58.1522 60.0834 55.7918 60.0834ZM72.9585 34.3334H30.0418C27.6814 34.3334 25.7502 32.4021 25.7502 30.0417C25.7502 27.6813 27.6814 25.75 30.0418 25.75H72.9585C75.3189 25.75 77.2502 27.6813 77.2502 30.0417C77.2502 32.4021 75.3189 34.3334 72.9585 34.3334Z" fill="#5A56E9"/>
</svg>
