<svg width="103" height="103" viewBox="0 0 103 103" fill="none" xmlns="http://www.w3.org/2000/svg">
<path d="M78.5373 24.5053C76.8636 22.8315 74.1598 22.8315 72.4861 24.5053L51.4998 45.4486L30.5136 24.4623C28.8398 22.7886 26.1361 22.7886 24.4623 24.4623C22.7886 26.1361 22.7886 28.8398 24.4623 30.5136L45.4486 51.4998L24.4623 72.4861C22.7886 74.1598 22.7886 76.8636 24.4623 78.5373C26.1361 80.2111 28.8398 80.2111 30.5136 78.5373L51.4998 57.5511L72.4861 78.5373C74.1598 80.2111 76.8636 80.2111 78.5373 78.5373C80.2111 76.8636 80.2111 74.1598 78.5373 72.4861L57.5511 51.4998L78.5373 30.5136C80.1682 28.8828 80.1682 26.1361 78.5373 24.5053Z" fill="#1A1C20"/>
</svg>
