<svg width="103" height="103" viewBox="0 0 103 103" fill="none" xmlns="http://www.w3.org/2000/svg">
<path d="M71.1989 38.625H64.3752V17.1667C64.3752 14.8062 62.4439 12.875 60.0835 12.875H42.9168C40.5564 12.875 38.6252 14.8062 38.6252 17.1667V38.625H31.8014C27.9818 38.625 26.0506 43.26 28.7543 45.9637L48.4531 65.6625C50.1268 67.3363 52.8306 67.3363 54.5043 65.6625L74.2031 45.9637C76.9068 43.26 75.0185 38.625 71.1989 38.625ZM21.4585 81.5417C21.4585 83.9021 23.3897 85.8333 25.7502 85.8333H77.2502C79.6106 85.8333 81.5418 83.9021 81.5418 81.5417C81.5418 79.1812 79.6106 77.25 77.2502 77.25H25.7502C23.3897 77.25 21.4585 79.1812 21.4585 81.5417Z" fill="#1A1C20"/>
</svg>
