<svg width="108" height="108" viewBox="0 0 108 108" fill="none" xmlns="http://www.w3.org/2000/svg">
<path d="M54 8.66992C29.115 8.66992 9 28.0471 9 52.0193C9 75.9915 29.115 95.3687 54 95.3687C78.885 95.3687 99 75.9915 99 52.0193C99 28.0471 78.885 8.66992 54 8.66992ZM54 86.6988C34.155 86.6988 18 71.1364 18 52.0193C18 32.9022 34.155 17.3398 54 17.3398C73.845 17.3398 90 32.9022 90 52.0193C90 71.1364 73.845 86.6988 54 86.6988Z" fill="#1A1C20"/>
<path fill-rule="evenodd" clip-rule="evenodd" d="M82.8637 78.0291L104.43 98.8044C106.18 100.49 106.18 103.249 104.43 104.935C102.68 106.621 99.8162 106.621 98.0661 104.935L76.4997 84.1596L82.8637 78.0291Z" fill="#1A1C20"/>
</svg>
