<svg width="103" height="103" viewBox="0 0 103 103" fill="none" xmlns="http://www.w3.org/2000/svg">
<path d="M17.1667 77.25H85.8333C88.1937 77.25 90.125 75.3187 90.125 72.9583C90.125 70.5979 88.1937 68.6667 85.8333 68.6667H17.1667C14.8062 68.6667 12.875 70.5979 12.875 72.9583C12.875 75.3187 14.8062 77.25 17.1667 77.25ZM17.1667 55.7917H85.8333C88.1937 55.7917 90.125 53.8604 90.125 51.5C90.125 49.1396 88.1937 47.2083 85.8333 47.2083H17.1667C14.8062 47.2083 12.875 49.1396 12.875 51.5C12.875 53.8604 14.8062 55.7917 17.1667 55.7917ZM12.875 30.0417C12.875 32.4021 14.8062 34.3333 17.1667 34.3333H85.8333C88.1937 34.3333 90.125 32.4021 90.125 30.0417C90.125 27.6812 88.1937 25.75 85.8333 25.75H17.1667C14.8062 25.75 12.875 27.6812 12.875 30.0417Z" fill="#1A1C20"/>
</svg>
