<svg width="86" height="69" viewBox="0 0 86 69" fill="none" xmlns="http://www.w3.org/2000/svg">
<path d="M77.25 8.58333H42.9167L36.8654 2.53208C35.2346 0.901251 33.0458 0 30.7713 0H8.58333C3.8625 0 0 3.8625 0 8.58333V60.0833C0 64.8042 3.8625 68.6667 8.58333 68.6667H77.25C81.9708 68.6667 85.8333 64.8042 85.8333 60.0833V17.1667C85.8333 12.4458 81.9708 8.58333 77.25 8.58333ZM64.1175 53.2596L55.7917 48.41L47.4658 53.2596C45.835 54.2038 43.8608 52.7446 44.29 50.8992L46.4788 41.4575L39.2258 35.1917C37.8096 33.9471 38.5392 31.5867 40.4275 31.415L49.9979 30.5996L53.7746 21.7588C54.5042 20.0421 56.9933 20.0421 57.7229 21.7588L61.4996 30.5996L71.07 31.415C72.9583 31.5867 73.7308 33.9471 72.2717 35.1917L65.0188 41.4575L67.2075 50.8992C67.6796 52.7446 65.7054 54.2038 64.1175 53.2596Z" fill="#1A1C20"/>
</svg>
