<svg width="103" height="103" viewBox="0 0 103 103" fill="none" xmlns="http://www.w3.org/2000/svg">
<path d="M86.091 43.5174C88.4943 45.4916 92.0135 45.3199 94.2022 43.1312C96.7343 40.5991 96.5627 36.3933 93.7731 34.1187C78.366 21.5012 58.5814 16.8233 39.9127 20.1278L51.0281 31.2433C63.431 31.1145 75.9197 35.1916 86.091 43.5174ZM76.3489 51.3712C73.0014 48.9249 69.3535 47.0795 65.5339 45.792L78.1943 58.4524C79.2243 55.9633 78.6235 53.002 76.3489 51.3712ZM59.8689 69.6537C54.6331 66.9499 48.3672 66.9499 43.0885 69.6537C40.5564 70.9841 40.0843 74.4603 42.1014 76.4774L48.4102 82.7862C50.0839 84.4599 52.7877 84.4599 54.4614 82.7862L60.7702 76.4774C62.8731 74.4603 62.4439 70.9841 59.8689 69.6537ZM84.4602 76.8208L17.6818 10.0424C16.0081 8.36867 13.3043 8.36867 11.6306 10.0424C9.95682 11.7162 9.95682 14.4199 11.6306 16.0937L21.6731 26.1791C17.3385 28.3249 13.1327 30.9428 9.27016 34.1187C6.48057 36.3933 6.3089 40.5991 8.84099 43.1312C11.0297 45.3199 14.506 45.5345 16.8664 43.5603C21.1581 40.0412 25.8789 37.2945 30.8143 35.2774L40.3847 44.8478C35.5352 46.1353 30.9002 48.2812 26.6943 51.3283C23.7331 53.4741 23.5614 57.8087 26.1364 60.3837L26.1793 60.4266C28.2822 62.5295 31.5868 62.7441 34.0331 60.9845C39.1402 57.3795 45.1056 55.577 51.071 55.4483L78.4089 82.7862C80.0827 84.4599 82.7864 84.4599 84.4602 82.7862C86.1339 81.1983 86.1339 78.4945 84.4602 76.8208Z" fill="#1A1C20"/>
</svg>
