<svg width="43" height="21" viewBox="0 0 43 21" fill="none" xmlns="http://www.w3.org/2000/svg">
<path d="M32 1.42652e-06C29.0826 1.55405e-06 26.2847 1.10625 24.2218 3.07538C22.1589 5.04451 21 7.71523 21 10.5C21 13.2848 22.1589 15.9555 24.2218 17.9246C26.2847 19.8938 29.0826 21 32 21L32 10.5L32 1.42652e-06Z" fill="#FF6E30"/>
<path d="M10.5 -4.5897e-07C13.2848 -3.37243e-07 15.9555 1.10625 17.9246 3.07538C19.8938 5.04451 21 7.71523 21 10.5C21 13.2848 19.8938 15.9555 17.9246 17.9246C15.9555 19.8938 13.2848 21 10.5 21L10.5 10.5L10.5 -4.5897e-07Z" fill="#161C27"/>
</svg>
